<svg width="117" height="33" viewBox="0 0 117 33" fill="none" xmlns="http://www.w3.org/2000/svg">
<path opacity="0.1" fill-rule="evenodd" clip-rule="evenodd" d="M1.24347 21.8418C1.24347 21.8418 5.75807 21.1093 10.8909 22.8689C20.6533 26.2155 21.2102 20.0871 24.8302 17.1321C28.142 14.4286 30.8849 16.0781 34.5724 19.3843C37.2922 21.8227 41.2558 25.9159 45.3606 25.2569C49.1128 24.6546 51.7728 19.8538 56.9737 18.6329C61.0958 17.6653 64.4457 20.3237 69.1923 19.3843C75.6315 18.1099 78.5077 10.6074 83.1098 10.6074C88.7898 10.6074 92.7888 4.26208 97.956 4.26208C103.093 4.26208 103.79 7.99329 109.409 10.6074C113.705 12.6059 115.771 10.6074 115.771 10.6074V32.0229H1.24347V21.8418Z" fill="url(#paint0_linear_2_1340)"/>
<path d="M1.24344 18.515C1.24344 18.515 5.75804 17.7932 10.8909 19.5273C20.6532 22.8254 21.2101 16.7857 24.8301 13.8735C28.142 11.2091 30.8849 12.8347 34.5724 16.0931C37.2921 18.4962 41.2558 22.5301 45.3606 21.8807C49.1128 21.2871 51.7728 16.5558 56.9737 15.3526C61.0958 14.399 64.4457 17.0189 69.1923 16.0931C75.6314 14.8371 78.5077 7.44324 83.1097 7.44324C88.7897 7.44324 92.7887 1.17465 97.956 1.17465C103.093 1.17465 103.366 4.86696 108.985 7.44324C113.28 9.41283 115.771 7.44324 115.771 7.44324" stroke="#1B59F8" stroke-width="1.84723" stroke-linecap="round" stroke-linejoin="round"/>
<defs>
<linearGradient id="paint0_linear_2_1340" x1="21.9416" y1="18.3481" x2="21.9416" y2="32.0229" gradientUnits="userSpaceOnUse">
<stop stop-color="#0062FF"/>
<stop offset="1" stop-color="white" stop-opacity="0.01"/>
</linearGradient>
</defs>
</svg>
