<svg width="50" height="50" viewBox="0 0 50 50" fill="none" xmlns="http://www.w3.org/2000/svg">
<path d="M42.6777 7.32231C37.9558 2.6004 31.6777 0 25 0C18.3223 0 12.0442 2.6004 7.32231 7.32231C2.6004 12.0442 0 18.3223 0 25C0 29.4985 1.20996 33.9109 3.4993 37.7601C5.67629 41.4208 8.77261 44.4871 12.4533 46.6273C16.2478 48.8338 20.5865 50 25 50C29.4135 50 33.7522 48.8338 37.5467 46.6273C41.2275 44.4871 44.3237 41.4208 46.5007 37.7601C48.79 33.9109 50 29.4985 50 25C50 18.3223 47.3996 12.0442 42.6777 7.32231ZM25 1.99203C37.6867 1.99203 48.008 12.3133 48.008 25C48.008 28.5893 47.1711 32.1189 45.5761 35.3021C43.4827 32.2755 40.7339 29.728 37.5466 27.8747C35.253 26.541 32.7605 25.5881 30.1729 25.0424C33.0413 23.292 34.9602 20.1329 34.9602 16.5339C34.9602 11.0418 30.492 6.57371 25 6.57371C19.508 6.57371 15.0398 11.0418 15.0398 16.5339C15.0398 20.1329 16.9587 23.292 19.827 25.0423C17.2394 25.588 14.7469 26.541 12.4533 27.8746C9.26604 29.7279 6.51723 32.2754 4.42381 35.302C2.82888 32.1189 1.99203 28.5893 1.99203 25C1.99203 12.3133 12.3133 1.99203 25 1.99203ZM25 24.502C20.6064 24.502 17.0319 20.9275 17.0319 16.5339C17.0319 12.1402 20.6064 8.56574 25 8.56574C29.3936 8.56574 32.9681 12.1402 32.9681 16.5339C32.9681 20.9275 29.3936 24.502 25 24.502ZM25 48.008C17.126 48.008 9.71883 43.9015 5.52371 37.2517C9.71873 30.6013 17.1256 26.494 25 26.494C32.8744 26.494 40.2813 30.6013 44.4763 37.2517C40.2812 43.9015 32.874 48.008 25 48.008Z" fill="#363D4E"/>
<path d="M10.4638 34.243C9.67238 35.006 8.93423 35.8367 8.26989 36.7125C7.93752 37.1508 8.02318 37.7756 8.46152 38.1081C8.6415 38.2446 8.85296 38.3105 9.06272 38.3105C9.36362 38.3105 9.66113 38.1747 9.85704 37.9164C10.4593 37.1224 11.1287 36.369 11.8464 35.6774C12.2424 35.2956 12.2541 34.665 11.8723 34.269C11.4905 33.8729 10.86 33.8613 10.4638 34.243Z" fill="#363D4E"/>
<path d="M21.1988 11.6664C19.6898 12.8462 18.8242 14.6203 18.8242 16.5339C18.8242 17.084 19.2701 17.5299 19.8202 17.5299C20.3703 17.5299 20.8163 17.084 20.8163 16.5339C20.8163 15.2375 21.4029 14.0354 22.4257 13.2358C22.8591 12.897 22.9358 12.271 22.5969 11.8376C22.2581 11.4043 21.6321 11.3276 21.1988 11.6664Z" fill="#363D4E"/>
<path d="M27.8513 11.0551C26.9772 10.5994 25.9913 10.3586 24.9999 10.3586C24.4498 10.3586 24.0039 10.8045 24.0039 11.3546C24.0039 11.9047 24.4498 12.3506 24.9999 12.3506C25.6815 12.3506 26.3311 12.509 26.9305 12.8215C27.0776 12.8982 27.235 12.9344 27.3901 12.9344C27.7494 12.9344 28.0965 12.7394 28.2741 12.3987C28.5284 11.9108 28.3391 11.3093 27.8513 11.0551Z" fill="#363D4E"/>
</svg>
