<svg width="49" height="50" viewBox="0 0 49 50" fill="none" xmlns="http://www.w3.org/2000/svg">
<path d="M45.189 31.8866C44.7436 31.8866 44.3217 31.9882 43.9455 32.1691C43.7466 31.8023 43.4677 31.4849 43.1333 31.2371C44.3042 28.4731 44.9217 25.4594 44.9217 22.4608C44.9217 18.0638 43.6496 13.8039 41.243 10.1418C40.9468 9.69107 40.3413 9.56568 39.8905 9.86197C39.4398 10.1582 39.3146 10.7636 39.6107 11.2144C41.8075 14.5571 42.9686 18.446 42.9686 22.4608C42.9686 25.2728 42.3749 28.0999 41.2487 30.6789C40.8769 30.7016 40.524 30.7949 40.2038 30.9457C40.0115 30.5772 39.7388 30.2569 39.4105 30.0047C40.4619 27.6381 41.0155 25.0501 41.0155 22.4608C41.0155 12.2297 32.692 3.90623 22.4608 3.90623C12.2297 3.90623 3.90623 12.2297 3.90623 22.4608C3.90623 25.7949 4.80174 29.0653 6.49587 31.9185C6.67839 32.2259 7.0032 32.3966 7.33649 32.3966C7.50593 32.3966 7.6777 32.3525 7.83415 32.2596C8.29792 31.9842 8.45065 31.385 8.17526 30.9214C6.66013 28.3698 5.85935 25.4441 5.85935 22.4608C5.85935 13.3068 13.3068 5.85935 22.4608 5.85935C31.6149 5.85935 39.0623 13.3068 39.0623 22.4608C39.0623 24.8527 38.5342 27.2433 37.533 29.4161C37.2641 29.4283 37.0042 29.4751 36.7596 29.5562V25.599C36.7596 23.9765 35.428 22.6565 33.7913 22.6565C32.1546 22.6565 30.8229 23.9765 30.8229 25.599V36.0228C30.2404 36.3745 29.8512 36.8432 29.6519 37.4229C27.4166 38.496 24.94 39.0623 22.4608 39.0623C19.4784 39.0623 16.553 38.2617 14.0008 36.7468C13.5367 36.4714 12.9377 36.6245 12.6625 37.0882C12.3874 37.552 12.5401 38.1511 13.0039 38.4264C15.8577 40.1202 19.1278 41.0155 22.4608 41.0155C24.9214 41.0155 27.3793 40.5152 29.6483 39.5637C29.6613 39.6169 29.6727 39.6693 29.6875 39.7236C29.6889 39.7286 29.6903 39.7337 29.6918 39.7389L30.1878 41.4555C27.7268 42.4587 25.1317 42.9686 22.4608 42.9686C11.1529 42.9686 1.95312 33.7688 1.95312 22.4608C1.95312 11.1529 11.1529 1.95312 22.4608 1.95312C26.4767 1.95312 30.3658 3.11434 33.7078 5.31121C34.1587 5.60769 34.764 5.4823 35.0603 5.03162C35.3565 4.58094 35.2314 3.97547 34.7807 3.67909C31.1191 1.27226 26.859 0 22.4608 0C16.4613 0 10.821 2.33632 6.57859 6.57859C2.33632 10.821 0 16.4614 0 22.4608C0 28.4604 2.33632 34.1007 6.57859 38.3431C10.821 42.5854 16.4613 44.9217 22.4608 44.9217C25.3172 44.9217 28.0944 44.3901 30.7329 43.3421L31.4398 45.7888V47.7128C31.4398 48.974 32.4736 50 33.7443 50H43.7035C44.9742 50 46.008 48.9739 46.008 47.7128V45.981L47.0121 44.667C47.8973 43.5088 48.0467 42.6656 48.0467 41.2135V34.72C48.0467 33.1577 46.7648 31.8866 45.189 31.8866ZM46.0936 41.2135C46.0936 42.4734 45.9586 42.8289 45.4604 43.481L44.2556 45.0575C44.1254 45.2278 44.0549 45.4361 44.0549 45.6505V47.7128C44.0549 47.8939 43.8941 48.0469 43.7035 48.0469H33.7443C33.5539 48.0469 33.3929 47.8939 33.3929 47.7128V45.6505C33.3929 45.5588 33.38 45.4675 33.3546 45.3794L31.5703 39.2045C31.2518 38.0248 31.6075 37.8223 31.8672 37.6743L32.2827 37.4375C32.5876 37.2639 32.7758 36.9399 32.7758 36.5891V25.599C32.7758 25.0534 33.2313 24.6096 33.7911 24.6096C34.3508 24.6096 34.8063 25.0534 34.8063 25.599V34.2764C34.8063 34.8158 35.2436 35.253 35.7829 35.253C36.3221 35.253 36.7594 34.8158 36.7594 34.2764V32.2441C36.7594 31.7588 37.1652 31.3638 37.6641 31.3638C38.1628 31.3638 38.5687 31.7587 38.5687 32.2441V33.5064C38.5687 34.0458 39.006 34.483 39.5453 34.483C40.0845 34.483 40.5218 34.0458 40.5218 33.5064C40.5218 33.0211 40.9277 32.6261 41.4266 32.6261C41.9253 32.6261 42.3312 33.0211 42.3312 33.5064V34.72C42.3312 35.2593 42.7685 35.6965 43.3077 35.6965C43.847 35.6965 44.2843 35.2593 44.2843 34.72C44.2843 34.2346 44.6901 33.8397 45.189 33.8397C45.6877 33.8397 46.0936 34.2346 46.0936 34.72V41.2135Z" fill="black"/>
<path d="M37.0284 8.01992C37.2109 8.17207 37.4326 8.24629 37.653 8.24629C37.9327 8.24629 38.2105 8.12666 38.4037 7.89492C38.749 7.48056 38.693 6.86484 38.2786 6.51953L38.2781 6.51904C37.8639 6.17373 37.2483 6.23008 36.903 6.64433C36.5577 7.05859 36.614 7.67461 37.0284 8.01992Z" fill="#868686"/>
<path d="M10.6882 35.6135C11.0874 35.2507 11.1168 34.6331 10.754 34.234L10.7535 34.2336C10.3907 33.8344 9.7734 33.8054 9.37418 34.1681C8.97516 34.5309 8.94596 35.1488 9.30876 35.5478C9.50153 35.7598 9.76608 35.8674 10.0316 35.8674C10.2661 35.8675 10.5011 35.7837 10.6882 35.6135Z" fill="#868686"/>
<path d="M22.4612 31.5645C24.0767 31.5645 25.3909 30.2503 25.3909 28.6348V23.3532C25.9287 23.8354 26.6161 24.0991 27.344 24.0991C28.1267 24.0991 28.8623 23.7944 29.4155 23.2411C30.5577 22.0989 30.5577 20.2403 29.4155 19.0981L24.5327 14.2154C23.9795 13.6621 23.2438 13.3573 22.4612 13.3573C21.6787 13.3573 20.9431 13.6621 20.3897 14.2153L15.507 19.098C14.3648 20.2402 14.3648 22.0988 15.507 23.241C16.6106 24.3444 18.3826 24.3818 19.5315 23.353V28.6346C19.5315 30.2503 20.8458 31.5645 22.4612 31.5645ZM18.2688 21.86C17.8883 22.2406 17.2687 22.2407 16.8881 21.86C16.7036 21.6757 16.6021 21.4304 16.6021 21.1696C16.6021 20.9089 16.7036 20.6636 16.8881 20.4793L21.7708 15.5966C21.9552 15.4121 22.2004 15.3106 22.4611 15.3106C22.722 15.3106 22.9672 15.4122 23.1515 15.5966L28.0343 20.4793C28.2187 20.6636 28.3203 20.9089 28.3203 21.1696C28.3203 21.4304 28.2187 21.6757 28.0343 21.86C27.8499 22.0444 27.6048 22.146 27.3439 22.146C27.0831 22.146 26.8379 22.0444 26.6536 21.86L25.1049 20.3113C24.8257 20.032 24.4057 19.9484 24.0406 20.0997C23.6758 20.2509 23.4378 20.6069 23.4378 21.0019V28.6349C23.4378 29.1734 22.9997 29.6115 22.4612 29.6115C21.9228 29.6115 21.4847 29.1734 21.4847 28.6349V21.0019C21.4847 20.6069 21.2467 20.2509 20.8818 20.0997C20.761 20.0496 20.6341 20.0253 20.5083 20.0253C20.2541 20.0253 20.0044 20.1246 19.8176 20.3114L18.2688 21.86Z" fill="#868686"/>
</svg>
