<svg width="32" height="32" viewBox="0 0 32 32" fill="none" xmlns="http://www.w3.org/2000/svg">
<path d="M9.01374 29.5654C6.88855 29.5654 4.7715 29.5654 2.64631 29.5654C1.8972 29.5654 1.5145 29.1908 1.52265 28.4499C1.53079 27.3751 1.47379 26.3003 1.63664 25.2255C2.17405 21.6102 5.23562 18.5323 8.85903 17.9868C9.39644 17.9054 9.9257 17.8646 10.4631 17.8646C12.1486 17.8646 13.8341 17.8646 15.5196 17.8646C15.9919 17.8646 16.3664 18.1659 16.4804 18.6056C16.5863 18.9964 16.4071 19.4361 16.0489 19.6641C15.8534 19.7863 15.6417 19.8188 15.4056 19.8188C13.7201 19.8188 12.0346 19.8107 10.3491 19.8188C7.0514 19.827 4.35624 21.9847 3.61527 25.201C3.44428 25.9501 3.46056 26.7155 3.46056 27.4728C3.46056 27.5705 3.48499 27.6275 3.59898 27.6193C3.67227 27.6112 3.73741 27.6193 3.81069 27.6193C7.6458 27.6193 11.4891 27.6193 15.3242 27.6193C15.4626 27.6193 15.6092 27.6193 15.7476 27.6438C16.228 27.7578 16.5455 28.2056 16.4967 28.686C16.4478 29.1746 16.0407 29.5573 15.5277 29.5654C14.4041 29.5735 13.2723 29.5654 12.1486 29.5654C11.1064 29.5654 10.0641 29.5654 9.01374 29.5654Z" fill="#868686"/>
<path d="M30.4366 22.2779C30.7461 21.9685 30.917 21.6265 30.7705 21.1868C30.6239 20.7308 30.2738 20.5598 29.826 20.4865C28.7511 20.3155 27.6845 20.1283 26.6178 19.9573C26.4387 19.9328 26.3573 19.8596 26.284 19.713C25.7873 18.7522 25.2824 17.7914 24.7939 16.8224C24.5903 16.4234 24.3135 16.1466 23.8331 16.1547C23.369 16.1629 23.1003 16.4316 22.9048 16.8224C22.4163 17.7914 21.9115 18.744 21.4148 19.713C21.3415 19.8596 21.2601 19.941 21.0809 19.9735C20.0061 20.1364 18.9394 20.3318 17.8728 20.4947C17.4331 20.5679 17.0748 20.7308 16.9282 21.1868C16.7817 21.6265 16.9527 21.9685 17.2621 22.2779C18.0356 23.0514 18.801 23.8412 19.5746 24.6148C19.6804 24.7206 19.7293 24.8183 19.6967 24.9812C19.6234 25.3557 19.5746 25.7384 19.5176 26.1211C19.3954 26.9109 19.2814 27.7008 19.1593 28.4987C19.1674 28.6534 19.1837 28.8 19.257 28.9466C19.5013 29.4677 20.0875 29.655 20.6575 29.37C21.6346 28.8896 22.6117 28.401 23.5888 27.8962C23.7761 27.7985 23.9226 27.7903 24.1181 27.8881C25.0626 28.3766 26.0153 28.8407 26.9598 29.3211C27.3588 29.5247 27.7496 29.5898 28.1323 29.313C28.5232 29.0361 28.572 28.6372 28.4987 28.1975C28.3359 27.1389 28.1812 26.0723 28.0102 25.0138C27.9776 24.8265 28.0183 24.7206 28.1486 24.5903C28.914 23.8249 29.6712 23.0433 30.4366 22.2779ZM27.3425 22.628C26.9842 22.9863 26.6341 23.3527 26.2758 23.711C26.0153 23.9715 25.9176 24.2809 25.9827 24.6555C26.0967 25.3557 26.1944 26.056 26.3084 26.8132C25.9338 26.626 25.6 26.455 25.258 26.2921C24.9486 26.1374 24.6392 25.9908 24.3298 25.8361C23.9959 25.6651 23.6702 25.6733 23.3445 25.8443C22.7094 26.17 22.0662 26.4875 21.3903 26.8214C21.5043 26.0804 21.5939 25.3802 21.716 24.6799C21.7812 24.2972 21.6916 23.9797 21.4148 23.711C20.9018 23.2143 20.3888 22.7339 19.8758 22.2372C19.8921 22.2046 19.9084 22.172 19.9165 22.1394C20.3969 22.058 20.8692 21.9685 21.3496 21.8952C22.571 21.6998 22.571 21.7079 23.141 20.6005C23.369 20.1608 23.5969 19.7211 23.8412 19.2489C24.1832 19.9165 24.517 20.5272 24.8265 21.1542C25.0056 21.5206 25.2824 21.7242 25.6896 21.7893C26.3817 21.887 27.0656 22.0173 27.8148 22.1476C27.6438 22.3186 27.4972 22.4733 27.3425 22.628Z" fill="#868686"/>
<path d="M15.2102 2.27176C11.4402 2.25548 8.36237 5.30891 8.34609 9.07075C8.33794 12.8407 11.3995 15.9104 15.1614 15.9186C18.915 15.9186 21.9848 12.8733 21.9929 9.11146C22.001 5.34963 18.9639 2.28805 15.2102 2.27176ZM15.1695 13.9644C12.4825 13.9644 10.2921 11.7741 10.2921 9.07889C10.2921 6.40001 12.4743 4.21782 15.1532 4.21782C17.8484 4.20968 20.0387 6.39186 20.0387 9.08703C20.0468 11.7822 17.8647 13.9644 15.1695 13.9644Z" fill="#868686"/>
</svg>
