<svg width="36" height="33" viewBox="0 0 36 33" fill="none" xmlns="http://www.w3.org/2000/svg">
<path fill-rule="evenodd" clip-rule="evenodd" d="M19.7508 30.5723H26.8408V17.5118H33.0034L17.885 2.3934L2.76656 17.5118H8.92924V30.5723H16.0192V25.3481H19.7508V30.5723ZM29.0797 30.9455C29.0797 31.4403 28.8831 31.9149 28.5332 32.2648C28.1833 32.6147 27.7088 32.8113 27.2139 32.8113H8.55608C8.06125 32.8113 7.58668 32.6147 7.23678 32.2648C6.88687 31.9149 6.6903 31.4403 6.6903 30.9455V19.7508H1.86539C1.49643 19.7507 1.13577 19.6412 0.82902 19.4362C0.522267 19.2312 0.283187 18.9398 0.142003 18.5989C0.000818987 18.2581 -0.0361292 17.883 0.0358295 17.5211C0.107788 17.1592 0.285423 16.8268 0.546277 16.5659L16.5659 0.546276C16.9158 0.196495 17.3903 0 17.885 0C18.3797 0 18.8542 0.196495 19.2041 0.546276L35.2237 16.5659C35.4846 16.8268 35.6622 17.1592 35.7342 17.5211C35.8061 17.883 35.7692 18.2581 35.628 18.5989C35.4868 18.9398 35.2477 19.2312 34.941 19.4362C34.6342 19.6412 34.2736 19.7507 33.9046 19.7508H29.0797V30.9455Z" fill="#868686"/>
</svg>
