<svg width="36" height="36" viewBox="0 0 36 36" fill="none" xmlns="http://www.w3.org/2000/svg">
<g clip-path="url(#clip0_21_579)">
<path d="M33.75 16.7625H30.4312C29.8125 10.8562 25.1437 6.18749 19.2937 5.56874V2.24999C19.2937 1.57499 18.7312 0.956238 18 0.956238C17.325 0.956238 16.7062 1.51874 16.7062 2.24999V5.56874C10.8562 6.18749 6.18749 10.8562 5.56874 16.7625H2.24999C1.57499 16.7625 0.956238 17.325 0.956238 18.0562C0.956238 18.7312 1.51874 19.35 2.24999 19.35H5.56874C6.13124 25.3125 10.8562 30.0375 16.7625 30.6562V33.75C16.7625 34.425 17.325 35.0437 18.0562 35.0437C18.7312 35.0437 19.35 34.4812 19.35 33.75V30.6C25.2562 29.9812 29.9812 25.2562 30.5437 19.2937H33.75C34.425 19.2937 35.0437 18.7312 35.0437 18C35.0437 17.325 34.425 16.7625 33.75 16.7625ZM19.2375 28.0125C19.2375 27.3375 18.675 26.775 18 26.775C17.325 26.775 16.7625 27.3375 16.7625 28.0125C12.2625 27.45 8.66249 23.7937 8.15624 19.2375H9.44999C10.125 19.2375 10.7437 18.675 10.7437 17.9437C10.7437 17.2687 10.1812 16.65 9.44999 16.65H8.15624C8.77499 12.15 12.3187 8.60624 16.7625 8.04374C16.8187 8.66249 17.3812 9.16874 18 9.16874C18.6187 9.16874 19.1812 8.66249 19.2375 8.04374C23.7375 8.60624 27.2812 12.15 27.8437 16.65C27.225 16.7062 26.7187 17.2687 26.7187 17.8875C26.7187 18.5625 27.225 19.0687 27.8437 19.125C27.3937 23.7937 23.7937 27.45 19.2375 28.0125Z" fill="#868686"/>
<path d="M21.4312 20.3063C22.1625 19.5187 22.6125 18.45 22.6125 17.2688C22.6125 14.7375 20.5312 12.6562 18 12.6562C15.4687 12.6562 13.3875 14.7375 13.3875 17.2688C13.3875 18.45 13.8375 19.5187 14.5687 20.3063C13.6687 20.7 12.8812 21.2063 12.15 21.825C11.6437 22.275 11.5875 23.0625 12.0375 23.625C12.2625 23.9063 12.6562 24.075 12.9937 24.075C13.275 24.075 13.6125 23.9625 13.8375 23.7375C15.0187 22.725 16.4812 22.1063 18 22.1063C19.575 22.1063 21.0375 22.6687 22.1625 23.6813C22.6687 24.1313 23.4562 24.1313 23.9625 23.5688C24.4125 23.0625 24.4125 22.275 23.85 21.7688C23.1187 21.2063 22.3312 20.7 21.4312 20.3063ZM18 15.1875C19.125 15.1875 20.0812 16.1438 20.0812 17.2688C20.0812 18.3938 19.125 19.35 18 19.35C16.875 19.35 15.9187 18.3938 15.9187 17.2688C15.9187 16.1438 16.875 15.1875 18 15.1875Z" fill="#868686"/>
</g>
<defs>
<clipPath id="clip0_21_579">
<rect width="36" height="36" fill="white"/>
</clipPath>
</defs>
</svg>
