<svg width="26" height="26" viewBox="0 0 26 26" fill="none" xmlns="http://www.w3.org/2000/svg">
<path d="M24.3734 5.68685C24.3734 6.22028 24.0792 6.74848 23.5077 7.2413C22.9361 7.73411 22.0983 8.1819 21.0422 8.55909C19.9861 8.93628 18.7323 9.23548 17.3524 9.43961C15.9725 9.64374 14.4935 9.74881 12.9999 9.74881C9.98351 9.74881 7.09062 9.32085 4.95768 8.55909C2.82474 7.79733 1.62646 6.76415 1.62646 5.68685C1.62646 5.15343 1.92065 4.62523 2.49222 4.13241C3.06379 3.63959 3.90156 3.1918 4.95768 2.81461C6.01381 2.43743 7.26761 2.13822 8.6475 1.93409C10.0274 1.72996 11.5064 1.62489 12.9999 1.62489C14.4935 1.62489 15.9725 1.72996 17.3524 1.93409C18.7323 2.13822 19.9861 2.43743 21.0422 2.81461C22.0983 3.1918 22.9361 3.63959 23.5077 4.13241C24.0792 4.62523 24.3734 5.15343 24.3734 5.68685Z" stroke="#868686" stroke-width="1.625" stroke-linecap="round" stroke-linejoin="round"/>
<path d="M24.3734 20.3099C24.3734 21.0229 23.8479 21.7234 22.8497 22.3409C21.8514 22.9584 20.4157 23.4712 18.6867 23.8277C16.9577 24.1842 14.9964 24.3719 12.9999 24.3719C11.0035 24.3719 9.04219 24.1842 7.31321 23.8277C5.58422 23.4712 4.14845 22.9584 3.15022 22.3409C2.15199 21.7234 1.62646 21.0229 1.62646 20.3099" stroke="#868686" stroke-width="1.625" stroke-linecap="round" stroke-linejoin="round"/>
<path d="M24.3734 15.4356C24.3734 16.1486 23.8479 16.849 22.8497 17.4665C21.8514 18.084 20.4157 18.5968 18.6867 18.9533C16.9577 19.3098 14.9964 19.4975 12.9999 19.4975C11.0035 19.4975 9.04219 19.3098 7.31321 18.9533C5.58422 18.5968 4.14845 18.084 3.15022 17.4665C2.15199 16.849 1.62647 16.1486 1.62646 15.4356" stroke="#868686" stroke-width="1.625" stroke-linecap="round" stroke-linejoin="round"/>
<path d="M24.3734 10.5612C24.3734 11.2742 23.8479 11.9747 22.8497 12.5922C21.8514 13.2097 20.4157 13.7225 18.6867 14.079C16.9577 14.4355 14.9964 14.6232 12.9999 14.6232C11.0035 14.6232 9.04219 14.4355 7.31321 14.079C5.58422 13.7225 4.14845 13.2097 3.15022 12.5922C2.15199 11.9747 1.62646 11.2742 1.62646 10.5612" stroke="#868686" stroke-width="1.625" stroke-linecap="round" stroke-linejoin="round"/>
<path d="M1.62646 5.68687V20.3099" stroke="#868686" stroke-width="1.625" stroke-linecap="round" stroke-linejoin="round"/>
<path d="M24.3735 5.68685V20.3099" stroke="#868686" stroke-width="1.625" stroke-linecap="round" stroke-linejoin="round"/>
</svg>
