<?xml version="1.0" encoding="utf-8"?>
<!-- Svg Vector Icons : http://www.onlinewebfonts.com/icon -->
<!DOCTYPE svg PUBLIC "-//W3C//DTD SVG 1.1//EN" "http://www.w3.org/Graphics/SVG/1.1/DTD/svg11.dtd">
<svg version="1.1" xmlns="http://www.w3.org/2000/svg" xmlns:xlink="http://www.w3.org/1999/xlink" x="0px" y="0px" viewBox="0 0 256 256" enable-background="new 0 0 256 256" xml:space="preserve">
<metadata> Svg Vector Icons : http://www.onlinewebfonts.com/icon </metadata>
<g><g><path fill="#868686" d="M243.2,154.6c-0.9,1-1.8,1.8-2.5,2.7c-0.7,0.8-1.4,1.5-2,2.1c-0.7,0.8-1.4,1.3-2,1.7l-23.8-23.6c1.1-0.9,2.4-2.1,3.8-3.4c1.4-1.3,2.6-2.4,3.5-3.1c2.2-2.1,4.7-2.9,7.3-2.7c2.6,0.3,4.7,0.9,6.4,1.8c1.9,0.9,3.9,2.6,6,4.9c2.1,2.4,3.8,4.8,4.9,7.5c0.6,1.5,0.9,3.4,1.1,5.6C246.2,150.4,245.2,152.6,243.2,154.6L243.2,154.6z M200.1,197.6L190,207.7l-9.2,9.2c-2.6,2.6-4.8,4.9-6.6,6.7c-1.8,1.9-2.7,2.9-2.9,3.1c-0.9,0.7-2,1.5-3.1,2.4c-1.1,0.8-2.2,1.5-3.3,2.1c-1.1,0.6-2.8,1.3-5.2,2.1c-2.3,0.8-4.7,1.6-7.1,2.4c-2.4,0.7-4.8,1.4-7,2c-2.2,0.6-3.9,0.9-5,1.1c-2.2,0.4-3.7,0.1-4.5-0.8s-0.9-2.5-0.6-4.8c0.2-1.1,0.6-2.8,1.1-5.1c0.6-2.3,1.2-4.6,2-6.9c0.7-2.4,1.4-4.6,2.1-6.6c0.7-2,1.2-3.5,1.5-4.2c1.1-2.4,2.6-4.6,4.5-6.5l3.6-3.7l7-7c2.8-2.8,5.9-5.9,9.2-9.4c3.3-3.5,6.7-6.9,10.1-10.2c8-8,17.1-17,27.2-26.9l23.5,23.6L200.1,197.6L200.1,197.6z M176.7,51.7c0-3.8-3.1-7-6.9-7h-13.9V30.9h27.8c3.8,0,6.9,3.1,6.9,7v94.4l-13.9,15.3V51.7L176.7,51.7z M155.9,83c0,1.9-1.6,3.5-3.5,3.5H48.2c-1.9,0-3.5-1.6-3.5-3.5v-7c0-1.9,1.5-3.5,3.5-3.5h104.2c1.9,0,3.5,1.5,3.5,3.5V83L155.9,83z M142,58.6h-7c-3.8,0-6.9-3.1-6.9-7V23.9c0-3.8,3.1-7,6.9-7h7c3.8,0,6.9,3.1,6.9,7v27.8C148.9,55.5,145.8,58.6,142,58.6L142,58.6z M79.5,30.9h41.7v13.9H79.5V30.9L79.5,30.9z M65.6,58.6h-6.9c-3.8,0-7-3.1-7-7V23.9c0-3.8,3.1-7,7-7h6.9c3.8,0,7,3.1,7,7v27.8C72.5,55.5,69.4,58.6,65.6,58.6L65.6,58.6z M23.9,51.7v152.8c0,3.8,3.1,7,7,7h87.8L106,225.4H16.9c-3.8,0-6.9-3.1-6.9-6.9V37.8c0-3.9,3.1-7,6.9-7h27.8v13.9H30.8C27,44.8,23.9,47.9,23.9,51.7L23.9,51.7z M48.2,197.6c-1.9,0-3.5-1.6-3.5-3.5v-7c0-1.9,1.5-3.5,3.5-3.5h95.7l-12.6,13.9H48.2L48.2,197.6z M155.9,166.3c0,1.9-1.6,3.5-3.5,3.5H48.2c-1.9,0-3.5-1.6-3.5-3.5v-6.9c0-1.9,1.5-3.5,3.5-3.5h104.2c1.9,0,3.5,1.5,3.5,3.5L155.9,166.3L155.9,166.3z M152.4,114.2H48.2c-1.9,0-3.5-1.6-3.5-3.5v-7c0-1.9,1.5-3.5,3.5-3.5h104.2c1.9,0,3.5,1.5,3.5,3.5v7C155.9,112.7,154.3,114.2,152.4,114.2L152.4,114.2z M155.9,138.5c0,1.9-1.6,3.5-3.5,3.5H48.2c-1.9,0-3.5-1.6-3.5-3.5v-7c0-1.9,1.5-3.5,3.5-3.5h104.2c1.9,0,3.5,1.5,3.5,3.5V138.5L155.9,138.5z"/></g></g>
</svg>