<svg width="26" height="26" viewBox="0 0 26 26" fill="none" xmlns="http://www.w3.org/2000/svg">
<path d="M25.5282 5.64988C25.146 4.22503 24.7289 2.76543 24.3466 1.34058C24.2076 0.819293 23.9296 0.610779 23.4083 0.610779C16.5274 0.610779 9.68114 0.610779 2.80017 0.610779C2.24413 0.610779 2.00086 0.819293 1.8271 1.34058C1.44483 2.73067 1.06255 4.12077 0.680274 5.51087C0.610769 5.78889 0.541264 6.03215 0.576016 6.34492C0.680273 7.24849 0.993045 8.04779 1.65334 8.67333C1.79235 8.81234 1.8271 8.9166 1.8271 9.09036C1.8271 13.1911 1.8271 17.2572 1.8271 21.358C1.8271 23.7906 3.63423 25.6325 6.10165 25.6325C7.45699 25.6325 8.84708 25.6325 10.2024 25.6325C11.1407 25.6325 12.0791 25.6325 13.0521 25.6325C13.4344 25.6325 13.7472 25.424 13.8514 25.1112C14.0599 24.5552 13.6429 23.9644 13.0174 23.9644C10.7237 23.9644 8.43006 23.9644 6.1364 23.9644C5.96264 23.9644 5.78888 23.9644 5.64987 23.9296C4.32927 23.7211 3.49522 22.7133 3.49522 21.3927C3.49522 17.5699 3.49522 13.7472 3.49522 9.92442C3.49522 9.85492 3.49522 9.78541 3.49522 9.71591C5.12858 9.92442 5.89313 9.6464 7.14422 8.49957C7.28323 8.36056 7.31798 8.49957 7.38748 8.56908C8.95134 10.2024 11.384 10.2024 12.9479 8.56908C13.0869 8.43007 13.1216 8.43007 13.2606 8.56908C13.9904 9.36838 14.894 9.78541 15.9713 9.78541C17.0834 9.78541 18.0217 9.36838 18.7863 8.56908C18.8905 8.43007 18.96 8.43007 19.0643 8.56908C19.2033 8.74284 19.3771 8.88185 19.5508 9.02086C20.4891 9.71591 21.5317 9.95917 22.6785 9.71591C22.6785 9.82016 22.6785 9.88967 22.6785 9.99393C22.6785 11.245 22.6785 12.4613 22.6785 13.7124C22.6785 14.0252 22.7828 14.3032 23.0608 14.477C23.3388 14.6507 23.6168 14.6507 23.8949 14.5117C24.2076 14.338 24.3466 14.0947 24.3466 13.7472C24.3466 12.1833 24.3466 10.6542 24.3466 9.09036C24.3466 8.95135 24.3814 8.8471 24.4857 8.74284C24.7637 8.49957 24.9722 8.1868 25.146 7.83928C25.4587 7.10948 25.702 6.41443 25.5282 5.64988ZM23.7906 6.7272C23.4778 7.63076 22.5048 8.22155 21.5665 8.08254C20.5239 7.94353 19.7941 7.10948 19.7593 6.10166C19.7246 5.44136 19.2033 5.02433 18.6125 5.2676C18.2302 5.40661 18.0912 5.71938 18.0912 6.10166C18.0217 7.24849 17.0834 8.1173 15.9366 8.1173C14.8245 8.08254 13.9557 7.21373 13.8862 6.10166C13.8514 5.40661 13.2606 5.02433 12.6698 5.30235C12.3571 5.47611 12.2181 5.75413 12.1833 6.10166C12.1486 7.24849 11.2102 8.15205 10.0287 8.1173C8.91659 8.08254 8.04778 7.21373 8.01303 6.0669C7.97827 5.44136 7.42224 5.02433 6.8662 5.2676C6.51867 5.40661 6.34491 5.68463 6.34491 6.0669C6.31016 7.14423 5.58036 7.94353 4.53779 8.1173C3.42571 8.29106 2.24413 7.3875 2.17463 6.24067C2.17463 6.13641 2.20938 6.03215 2.24413 5.9279C2.5569 4.81582 2.86967 3.66899 3.14769 2.55691C3.18245 2.38315 3.25195 2.31365 3.46046 2.31365C6.65768 2.31365 9.82015 2.31365 13.0174 2.31365C16.1798 2.31365 19.3423 2.31365 22.5395 2.31365C22.748 2.31365 22.8175 2.3484 22.8523 2.55691C23.1303 3.66899 23.4431 4.78107 23.7559 5.85839C23.9296 6.13641 23.8949 6.41443 23.7906 6.7272Z" fill="#868686"/>
<path d="M22.887 20.1069C22.6785 20.0026 22.6438 19.9331 22.8175 19.7246C23.6168 18.6473 23.7559 17.4309 23.1651 16.2146C22.5743 14.9983 21.5317 14.4075 20.2111 14.338C18.8558 14.4075 17.8132 14.9983 17.2224 16.2146C16.6316 17.4309 16.7706 18.6125 17.5699 19.7246C17.7089 19.9331 17.7089 19.9679 17.5004 20.1069C15.7628 21.1495 14.8592 22.7133 14.7897 24.7637C14.7897 25.2502 15.1373 25.6325 15.6238 25.6325C16.0756 25.6325 16.4578 25.285 16.4578 24.7985C16.4578 24.6247 16.4926 24.4509 16.4926 24.2772C16.7706 22.331 18.4735 20.9409 20.4544 21.0452C22.3658 21.1495 23.8949 22.7828 23.9644 24.729C23.9644 25.285 24.3466 25.6325 24.8332 25.6325C25.3197 25.6325 25.6672 25.2502 25.6325 24.6942C25.4935 22.6786 24.5899 21.1495 22.887 20.1069ZM20.1416 19.3771C19.238 19.3771 18.4735 18.6125 18.4735 17.6742C18.4735 16.7706 19.238 16.0409 20.1416 16.0409C21.0799 16.0409 21.8097 16.8054 21.8097 17.709C21.8445 18.6125 21.0799 19.3771 20.1416 19.3771Z" fill="#868686"/>
</svg>
