<svg width="29" height="35" viewBox="0 0 29 35" fill="none" xmlns="http://www.w3.org/2000/svg">
<path d="M5.74998 27.7084V14.5834C5.74998 12.2627 6.67185 10.0371 8.3128 8.39619C9.95374 6.75525 12.1793 5.83337 14.5 5.83337C16.8206 5.83337 19.0462 6.75525 20.6872 8.39619C22.3281 10.0371 23.25 12.2627 23.25 14.5834V27.7084M5.74998 27.7084H23.25M5.74998 27.7084H2.83331M23.25 27.7084H26.1666M13.0416 32.0834H15.9583" stroke="black" stroke-width="4.16667" stroke-linecap="round" stroke-linejoin="round"/>
<path d="M14.5 5.83335C15.3054 5.83335 15.9583 5.18044 15.9583 4.37502C15.9583 3.5696 15.3054 2.91669 14.5 2.91669C13.6945 2.91669 13.0416 3.5696 13.0416 4.37502C13.0416 5.18044 13.6945 5.83335 14.5 5.83335Z" stroke="black" stroke-width="4.16667"/>
</svg>
