<svg width="18" height="10" viewBox="0 0 18 10" fill="none" xmlns="http://www.w3.org/2000/svg">
<path d="M16.04 0.216354L8.71873 8.03321L1.39744 0.216354C1.26663 0.0764104 1.09103 -0.00193571 0.908178 -0.00193571C0.725326 -0.00193571 0.549728 0.0764104 0.418921 0.216354C0.355584 0.284325 0.305267 0.365455 0.270916 0.454992C0.236565 0.54453 0.218872 0.640676 0.218872 0.737798C0.218872 0.83492 0.236565 0.931065 0.270916 1.0206C0.305267 1.11014 0.355584 1.19127 0.418921 1.25924L8.20749 9.57668C8.34427 9.72271 8.52772 9.80443 8.71873 9.80443C8.90973 9.80443 9.09318 9.72271 9.22996 9.57668L17.0185 1.26085C17.0823 1.19282 17.133 1.1115 17.1676 1.02166C17.2022 0.931826 17.2201 0.835306 17.2201 0.737798C17.2201 0.64029 17.2022 0.543769 17.1676 0.453934C17.133 0.3641 17.0823 0.282771 17.0185 0.214749C16.8877 0.0748053 16.7121 -0.00354004 16.5293 -0.00354004C16.3464 -0.00354004 16.1708 0.0748053 16.04 0.214749V0.216354Z" fill="black"/>
</svg>
